<?xml version="1.0" encoding="utf-8"?>
<!-- Generator: Adobe Illustrator 15.1.0, SVG Export Plug-In . SVG Version: 6.00 Build 0)  -->
<!DOCTYPE svg PUBLIC "-//W3C//DTD SVG 1.1//EN" "http://www.w3.org/Graphics/SVG/1.1/DTD/svg11.dtd">
<svg version="1.1" id="Calque_1" xmlns="http://www.w3.org/2000/svg" xmlns:xlink="http://www.w3.org/1999/xlink" x="0px" y="0px"
	 width="595.281px" height="595.276px" viewBox="123.305 0.002 595.281 595.276"
	 enable-background="new 123.305 0.002 595.281 595.276" xml:space="preserve">
<g>
	<path d="M718.585,74.41c0-14.882-9.922-24.804-24.805-24.804H148.108c-14.882,0-24.803,9.921-24.803,24.804v49.606
		c0,14.882,9.921,24.804,24.803,24.804h545.673c14.883,0,24.805-9.921,24.805-24.804V74.41z"/>
	<path d="M718.585,272.837c0-14.882-9.922-24.804-24.805-24.804H148.108c-14.882,0-24.803,9.921-24.803,24.804v49.606
		c0,14.883,9.921,24.805,24.803,24.805h545.673c14.883,0,24.805-9.922,24.805-24.805V272.837z"/>
	<path d="M718.585,471.263c0-14.881-9.922-24.803-24.805-24.803H148.108c-14.882,0-24.803,9.922-24.803,24.803v49.607
		c0,14.881,9.921,24.803,24.803,24.803h545.673c14.883,0,24.805-9.922,24.805-24.803V471.263z"/>
</g>
</svg>
